<svg width="97" height="17" viewBox="0 0 97 17" fill="none" xmlns="http://www.w3.org/2000/svg">
<path d="M8.5 0L10.4084 5.87336L16.584 5.87336L11.5878 9.50329L13.4962 15.3766L8.5 11.7467L3.50383 15.3766L5.41219 9.50329L0.416019 5.87336L6.59163 5.87336L8.5 0Z" fill="#FF6B08"/>
<path d="M28.5 0L30.4084 5.87336L36.584 5.87336L31.5878 9.50329L33.4962 15.3766L28.5 11.7467L23.5038 15.3766L25.4122 9.50329L20.416 5.87336L26.5916 5.87336L28.5 0Z" fill="#FF6B08"/>
<path d="M48.5 0L50.4084 5.87336L56.584 5.87336L51.5878 9.50329L53.4962 15.3766L48.5 11.7467L43.5038 15.3766L45.4122 9.50329L40.416 5.87336L46.5916 5.87336L48.5 0Z" fill="#FF6B08"/>
<path d="M68.5 0L70.4084 5.87336L76.584 5.87336L71.5878 9.50329L73.4962 15.3766L68.5 11.7467L63.5038 15.3766L65.4122 9.50329L60.416 5.87336L66.5916 5.87336L68.5 0Z" fill="#FF6B08"/>
<path d="M88.5 1.61804L89.9328 6.02786L90.0451 6.37336H90.4084L95.0451 6.37336L91.2939 9.09878L91 9.31231L91.1123 9.6578L92.5451 14.0676L88.7939 11.3422L88.5 11.1287L88.2061 11.3422L84.4549 14.0676L85.8877 9.6578L86 9.31231L85.7061 9.09878L81.9549 6.37336L86.5916 6.37336H86.9549L87.0672 6.02786L88.5 1.61804Z" stroke="#FF6B08"/>
</svg>
